HIERARCHY
ROOT Hips
{
	OFFSET 0.000000 0.000000 0.000000
	CHANNELS 6 Xposition Yposition Zposition Zrotation Yrotation Xrotation 
	JOINT LHipJoint
	{
		OFFSET 0.000000 0.000000 0.000000
		CHANNELS 3 Zrotation Yrotation Xrotation
		JOINT LeftUpLeg
		{
			OFFSET 1.363060 -1.794630 0.839290
			CHANNELS 3 Zrotation Yrotation Xrotation
			JOINT LeftLeg
			{
				OFFSET 2.448110 -6.726130 0.000000
				CHANNELS 3 Zrotation Yrotation Xrotation
				JOINT LeftFoot
				{
					OFFSET 2.562200 -7.039590 0.000000
					CHANNELS 3 Zrotation Yrotation Xrotation
					JOINT LeftToeBase
					{
						OFFSET 0.157640 -0.433110 2.322550
						CHANNELS 3 Zrotation Yrotation Xrotation
						End Site
						{
							OFFSET 0.000000 0.000000 0.000000
						}
					}
				}
			}
		}
	}
	JOINT RHipJoint
	{
		OFFSET 0.000000 0.000000 0.000000
		CHANNELS 3 Zrotation Yrotation Xrotation
		JOINT RightUpLeg
		{
			OFFSET -1.305520 -1.794630 0.839290
			CHANNELS 3 Zrotation Yrotation Xrotation
			JOINT RightLeg
			{
				OFFSET -2.542530 -6.985550 0.000000
				CHANNELS 3 Zrotation Yrotation Xrotation
				JOINT RightFoot
				{
					OFFSET -2.568260 -7.056230 0.000000
					CHANNELS 3 Zrotation Yrotation Xrotation
					JOINT RightToeBase
					{
						OFFSET -0.164730 -0.452590 2.363150
						CHANNELS 3 Zrotation Yrotation Xrotation
						End Site
						{
							OFFSET 0.000000 0.000000 0.000000
						}
					}
				}
			}
		}
	}
}
MOTION
Frames: 13
Frame Time: 0.008333
-0.613197 17.473837 -1.699935 97.719159 -71.984256 -77.692380 -5.609190 -3.939098 3.180404 -3.223216 -20.626542 -96.969459 -5.295562 -2.793633 -6.964248 -1.464392 -5.724501 12.907062 -1.154900 -0.000001 -57.153601 8.099716 3.956798 -5.761557 -6.654194 1.851195 -20.750769 0.464636 -0.701200 12.263041 -1.055995 -3.943030 -2.631147 -0.720700 -0.000001 -55.357100
-0.613507 17.473639 -1.696021 98.080086 -71.880663 -77.902721 -5.650870 -3.901339 3.221037 -3.000065 -20.659112 -96.646328 -5.197603 -2.699188 -6.482017 -1.380634 -5.186949 13.097141 -0.967700 0.000000 -57.040600 8.101508 3.969289 -5.702407 -6.794882 1.891605 -21.037740 0.450223 -0.698444 12.375279 -1.050304 -3.904140 -2.637989 -0.716000 -0.000000 -55.396100
-0.614047 17.473257 -1.692175 98.424002 -71.790411 -78.121060 -5.706093 -3.859250 3.253307 -2.782349 -20.698954 -96.267473 -5.074817 -2.559331 -5.790559 -1.273895 -4.498415 13.488653 -0.732001 -0.000000 -56.915599 8.106912 3.979261 -5.643450 -6.922745 1.935419 -21.297989 0.436356 -0.696613 12.491866 -1.045715 -3.870983 -2.650653 -0.711500 -0.000000 -55.436700
-0.615006 17.472671 -1.688137 98.802778 -71.717262 -78.403468 -5.775272 -3.809293 3.264060 -2.675142 -20.738628 -95.830524 -4.948519 -2.374755 -4.875995 -1.166575 -3.819760 14.033332 -0.502000 0.000000 -56.716400 8.113446 3.983165 -5.581176 -7.026732 1.990720 -21.528289 0.424707 -0.694245 12.607986 -1.040449 -3.835295 -2.667914 -0.706300 -0.000000 -55.465300
-0.616136 17.472084 -1.684030 99.253806 -71.655774 -78.788007 -5.851769 -3.760923 3.252525 -2.612434 -20.751261 -95.280354 -4.805120 -2.168584 -3.889679 -1.053248 -3.119624 14.754783 -0.262400 -0.000001 -56.532600 8.122818 3.984098 -5.517251 -7.115008 2.060499 -21.721207 0.414444 -0.690850 12.709988 -1.033198 -3.791652 -2.680963 -0.700400 -0.000000 -55.496100
-0.617597 17.471513 -1.679659 99.811595 -71.608328 -79.308314 -5.935086 -3.714190 3.214149 -2.631002 -20.723727 -94.612084 -4.656155 -1.948334 -2.858986 -0.946970 -2.491609 15.598650 -0.046900 -0.000000 -56.358100 8.132428 3.979346 -5.448207 -7.180145 2.154897 -21.877942 0.406327 -0.684896 12.789881 -1.023521 -3.739037 -2.686663 -0.694100 0.000001 -55.522000
-0.619649 17.471098 -1.674776 100.497023 -71.575660 -79.977658 -6.023441 -3.673302 3.152939 -2.691950 -20.642704 -93.811649 -4.499615 -1.728688 -1.861291 -0.848037 -1.942285 16.530205 0.141700 -0.000001 -56.241900 8.140002 3.967891 -5.372838 -7.219728 2.279421 -22.000943 0.400742 -0.675259 12.838427 -1.011308 -3.677911 -2.680833 -0.687800 -0.000000 -55.540801
-0.618172 17.471110 -1.671265 104.157606 -71.491692 -83.395455 -6.082289 -3.520866 3.009723 -2.982697 -19.723762 -93.123049 -4.387987 -1.489934 -0.800360 -0.779967 -1.713028 17.237279 0.191100 0.000000 -56.463800 8.208655 3.983026 -5.079996 -7.408307 3.522256 -22.519411 0.310731 -0.637447 13.046121 -1.048356 -3.909475 -2.620118 -0.731100 -0.000000 -55.475500
-0.621772 17.471112 -1.665040 105.117744 -71.473106 -84.376883 -6.173366 -3.490569 2.904939 -3.128483 -19.519756 -92.063878 -4.237198 -1.291260 0.067755 -0.707603 -1.407661 18.159125 0.279400 -0.000001 -56.479599 8.211030 3.956080 -4.987292 -7.395463 3.717665 -22.578380 0.310736 -0.618475 13.015831 -1.031143 -3.834397 -2.585039 -0.726100 -0.000000 -55.476800
-0.626525 17.471357 -1.657763 106.211677 -71.466568 -85.502543 -6.268294 -3.466131 2.788018 -3.284630 -19.257581 -90.891936 -4.090108 -1.110223 0.848782 -0.646417 -1.212524 18.998830 0.319800 0.000000 -56.557100 8.205939 3.919528 -4.885131 -7.351738 3.953584 -22.608581 0.313977 -0.593776 12.939956 -1.012902 -3.760765 -2.534237 -0.723100 0.000001 -55.467300
-0.632531 17.471825 -1.649404 107.424711 -71.468835 -86.757523 -6.366996 -3.446570 2.663252 -3.437489 -18.944779 -89.615654 -3.947171 -0.948568 1.541822 -0.592866 -1.100245 19.720046 0.322999 0.000000 -56.684000 8.192977 3.873858 -4.774304 -7.278816 4.227583 -22.609559 0.320385 -0.563533 12.819539 -0.994056 -3.690763 -2.468684 -0.722300 -0.000000 -55.447000
-0.640035 17.472457 -1.639993 108.740860 -71.476875 -88.124808 -6.469848 -3.430295 2.533989 -3.580259 -18.590945 -88.243412 -3.808356 -0.806000 2.154756 -0.542949 -1.037217 20.299935 0.304500 0.000000 -56.843101 8.172070 3.819672 -4.656125 -7.178455 4.535913 -22.578844 0.329886 -0.528144 12.657381 -0.975135 -3.626869 -2.390545 -0.723700 -0.000000 -55.417000
-0.648997 17.473226 -1.629512 110.139356 -71.489608 -89.588451 -6.577381 -3.416110 2.401389 -3.713580 -18.205667 -86.781583 -3.673174 -0.680511 2.702297 -0.492793 -0.989197 20.729438 0.281100 0.000000 -56.999001 8.143334 3.757939 -4.532584 -7.052193 4.874059 -22.512383 0.342570 -0.488354 12.457911 -0.956532 -3.570802 -2.302436 -0.727400 0.000000 -55.379000
